<?xml version="1.0" encoding="windows-1252" standalone="no"?>
<svg xmlns="http://www.w3.org/2000/svg" xmlns:xlink="http://www.w3.org/1999/xlink" contentStyleType="text/css" height="93px" preserveAspectRatio="none" style="width:507px;height:93px;background:#FFFFFF;" version="1.1" viewBox="0 0 507 93" width="507px" zoomAndPan="magnify"><defs/><g><!--entity User--><g id="elem_User"><ellipse cx="21.5" cy="20.0659" fill="#F1F1F1" rx="8" ry="8" style="stroke:#181818;stroke-width:0.5;"/><path d="M21.5,28.0659 L21.5,55.0659 M8.5,36.0659 L34.5,36.0659 M21.5,55.0659 L8.5,70.0659 M21.5,55.0659 L34.5,70.0659 " fill="none" style="stroke:#181818;stroke-width:0.5;"/><text fill="#000000" font-family="sans-serif" font-size="14" lengthAdjust="spacing" textLength="31" x="6" y="84.561">User</text></g><g id="elem_Programa"><ellipse cx="439.5597" cy="49.3479" fill="#F1F1F1" rx="61.5597" ry="14.782" style="stroke:#181818;stroke-width:0.5;"/><text fill="#000000" font-family="sans-serif" font-size="14" lengthAdjust="spacing" textLength="69" x="402.0597" y="53.0954">Programa</text></g><!--link User to Programa--><g id="link_User_Programa"><path d="M37.2135,54.8059 C52.9039,59.7425 77.8122,66.7839 100,69.5659 C147.407,75.51 267.374,73.3669 315,69.5659 C338.737,67.6715 364.779,63.7762 386.882,59.9223 " fill="none" id="User-to-Programa" style="stroke:#181818;stroke-width:1.0;"/><polygon fill="#181818" points="391.827,59.0495,382.269,56.6738,386.903,59.9181,383.6587,64.5522,391.827,59.0495" style="stroke:#181818;stroke-width:1.0;"/><text fill="#000000" font-family="sans-serif" font-size="13" lengthAdjust="spacing" textLength="213" x="101" y="65.6328">Informa o quanto ganha por hora</text></g><!--link User to Programa--><g id="link_User_Programa"><path d="M37.3757,49.5659 C91.8023,49.5659 272.966,49.5659 372.526,49.5659 " fill="none" id="User-to-Programa-1" style="stroke:#181818;stroke-width:1.0;"/><polygon fill="#181818" points="377.791,49.5659,368.791,45.5659,372.791,49.5659,368.791,53.5659,377.791,49.5659" style="stroke:#181818;stroke-width:1.0;"/><text fill="#000000" font-family="sans-serif" font-size="13" lengthAdjust="spacing" textLength="304" x="55.5" y="42.6328">Informa o quanto trabalha por mês (Em  horas)</text></g><!--link Programa to User--><g id="link_Programa_User"><path d="M400.889,37.7565 C388.155,34.4107 373.837,31.228 360.5,29.5659 C326.761,25.3615 87.2461,20.4174 54.5,29.5659 C50.046,30.8103 45.5945,32.8378 41.4681,35.1356 " fill="none" id="Programa-to-User" style="stroke:#181818;stroke-width:1.0;"/><polygon fill="#181818" points="37.1333,37.7109,46.9139,36.5532,41.432,35.1572,42.828,29.6753,37.1333,37.7109" style="stroke:#181818;stroke-width:1.0;"/><text fill="#000000" font-family="sans-serif" font-size="13" lengthAdjust="spacing" textLength="200" x="107.5" y="19.6328">Informa quanto ganha por mês</text></g><!--SRC=[imejJYsoKj2rKz08ACfFBqhCJTIqKl3CIyiloarKo5SeB4tCAybNI4_CoqXKACWlKiZ8BqhaiY9ELqbHOb9Y3bHZxk5LnGeQhhaAO2EADRcuh61wmIP1Z8IPWM4lI3i0]--></g></svg>