<?xml version="1.0" encoding="windows-1252" standalone="no"?>
<svg xmlns="http://www.w3.org/2000/svg" xmlns:xlink="http://www.w3.org/1999/xlink" contentStyleType="text/css" height="150px" preserveAspectRatio="none" style="width:321px;height:150px;background:#FFFFFF;" version="1.1" viewBox="0 0 321 150" width="321px" zoomAndPan="magnify"><defs/><g><!--entity usuario--><g id="elem_usuario"><ellipse cx="31" cy="43.0659" fill="#F1F1F1" rx="8" ry="8" style="stroke:#181818;stroke-width:0.5;"/><path d="M31,51.0659 L31,78.0659 M18,59.0659 L44,59.0659 M31,78.0659 L18,93.0659 M31,78.0659 L44,93.0659 " fill="none" style="stroke:#181818;stroke-width:0.5;"/><text fill="#000000" font-family="sans-serif" font-size="14" lengthAdjust="spacing" textLength="50" x="6" y="107.561">usuario</text></g><g id="elem_sistema"><ellipse cx="263.8543" cy="72.7742" fill="#F1F1F1" rx="51.8543" ry="14.7084" style="stroke:#181818;stroke-width:0.5;"/><text fill="#000000" font-family="sans-serif" font-size="14" lengthAdjust="spacing" textLength="56" x="232.8543" y="76.5218">sistema</text></g><!--link usuario to sistema--><g id="link_usuario_sistema"><path d="M56.2436,99.5264 C63.9739,106.0388 72.9733,112.1115 82.5,115.5658 C104.0181,123.368 163.326,121.2411 185.5,115.5658 C205.555,110.4329 225.995,98.9977 240.989,89.2095 " fill="none" id="usuario-to-sistema" style="stroke:#181818;stroke-width:1.0;"/><polygon fill="#181818" points="245.46,86.2334,235.7518,87.8918,241.2981,89.0045,240.1855,94.5508,245.46,86.2334" style="stroke:#181818;stroke-width:1.0;"/><text fill="#000000" font-family="sans-serif" font-size="13" lengthAdjust="spacing" textLength="81" x="93.5" y="111.6327">valor p/ hora</text></g><!--link usuario to sistema--><g id="link_usuario_sistema"><path d="M56.399,40.6529 C61.5456,36.1369 67.3013,32.1549 73.5,29.5659 C85.906,24.3849 181.568,25.8889 194.5,29.5659 C212.402,34.6559 230.205,45.8193 243.311,55.4956 " fill="none" id="usuario-to-sistema-1" style="stroke:#181818;stroke-width:1.0;"/><polygon fill="#181818" points="247.568,58.7092,242.7951,50.0941,243.5775,55.6966,237.975,56.479,247.568,58.7092" style="stroke:#181818;stroke-width:1.0;"/><text fill="#000000" font-family="sans-serif" font-size="13" lengthAdjust="spacing" textLength="77" x="95.5" y="19.6328">hora p/ mes</text></g><!--link sistema to usuario--><g id="link_sistema_usuario"><path d="M211.943,72.5658 C165.825,72.5658 100.049,72.5658 61.8143,72.5658 " fill="none" id="sistema-to-usuario" style="stroke:#181818;stroke-width:1.0;"/><polygon fill="#181818" points="56.3786,72.5658,65.3786,76.5658,61.3786,72.5658,65.3786,68.5658,56.3786,72.5658" style="stroke:#181818;stroke-width:1.0;"/><text fill="#000000" font-family="sans-serif" font-size="13" lengthAdjust="spacing" textLength="119" x="74.5" y="65.6327">Valor bruto p/ mes</text></g><!--link sistema to usuario--><g id="link_sistema_usuario"><path d="M231.53,61.184 C219.991,57.6858 206.808,54.3015 194.5,52.5658 C167.875,48.811 99.7413,46.6999 73.5,52.5658 C69.3816,53.4864 65.1916,54.8521 61.1271,56.4453 " fill="none" id="sistema-to-usuario-1" style="stroke:#181818;stroke-width:1.0;"/><polygon fill="#181818" points="56.4253,58.4071,66.2716,58.6331,61.0398,56.4818,63.1911,51.25,56.4253,58.4071" style="stroke:#181818;stroke-width:1.0;"/><text fill="#000000" font-family="sans-serif" font-size="13" lengthAdjust="spacing" textLength="82" x="93" y="42.6328">Valor  liquido</text></g><!--link sistema to usuario--><g id="link_sistema_usuario"><path d="M252.512,86.969 C238.629,103.0988 213.604,128.3213 185.5,138.5658 C174.748,142.4853 92.7847,143.5859 82.5,138.5658 C71.643,133.2664 62.4068,124.4498 54.8836,114.9589 " fill="none" id="sistema-to-usuario-2" style="stroke:#181818;stroke-width:1.0;"/><polygon fill="#181818" points="51.7644,110.8583,54.0296,120.4431,54.7915,114.8378,60.3968,115.5998,51.7644,110.8583" style="stroke:#181818;stroke-width:1.0;"/><text fill="#000000" font-family="sans-serif" font-size="13" lengthAdjust="spacing" textLength="77" x="95.5" y="134.6327">Valor do I.R.</text></g><!--link sistema to usuario--><g id="link_sistema_usuario"><path d="M229.189,83.4208 C215.689,87.1041 200.013,90.7461 185.5,92.5658 C140.078,98.2611 127.495,100.996 82.5,92.5658 C75.2998,91.2168 67.8119,88.8925 60.8489,86.2951 " fill="none" id="sistema-to-usuario-3" style="stroke:#181818;stroke-width:1.0;"/><polygon fill="#181818" points="56.1223,84.4618,63.0667,91.4457,60.7839,86.2699,65.9597,83.9871,56.1223,84.4618" style="stroke:#181818;stroke-width:1.0;"/><text fill="#000000" font-family="sans-serif" font-size="13" lengthAdjust="spacing" textLength="101" x="83.5" y="88.6327">Valor do I.N.S.S.</text></g><!--SRC=[ioejBaqioiotKj2rKz0epYmkISrDrBGgIyp9Br8eq5V8o2zAvBB2hWWi2LAKcrhCnGKN1oc2QmW36vHKL5gI3rE9Jw52JcPXQMPAFbv5AVaAddf1UeJL-Ea50o40]--></g></svg>