<?xml version="1.0" encoding="windows-1252" standalone="no"?>
<svg xmlns="http://www.w3.org/2000/svg" xmlns:xlink="http://www.w3.org/1999/xlink" contentStyleType="text/css" height="93px" preserveAspectRatio="none" style="width:382px;height:93px;background:#FFFFFF;" version="1.1" viewBox="0 0 382 93" width="382px" zoomAndPan="magnify"><defs/><g><!--entity Usuario--><g id="elem_Usuario"><ellipse cx="31.5" cy="20.0659" fill="#F1F1F1" rx="8" ry="8" style="stroke:#181818;stroke-width:0.5;"/><path d="M31.5,28.0659 L31.5,55.0659 M18.5,36.0659 L44.5,36.0659 M31.5,55.0659 L18.5,70.0659 M31.5,55.0659 L44.5,70.0659 " fill="none" style="stroke:#181818;stroke-width:0.5;"/><text fill="#000000" font-family="sans-serif" font-size="14" lengthAdjust="spacing" textLength="51" x="6" y="84.561">Usuario</text></g><g id="elem_Programa"><ellipse cx="314.5597" cy="49.3479" fill="#F1F1F1" rx="61.5597" ry="14.782" style="stroke:#181818;stroke-width:0.5;"/><text fill="#000000" font-family="sans-serif" font-size="14" lengthAdjust="spacing" textLength="69" x="277.0597" y="53.0954">Programa</text></g><!--link Usuario to Programa--><g id="link_Usuario_Programa"><path d="M57.2388,35.4062 C62.7783,32.9882 68.7119,30.8461 74.5,29.5659 C109.433,21.8393 199.997,25.1416 235.5,29.5659 C247.17,31.0202 259.591,33.6388 271.044,36.5121 " fill="none" id="Usuario-to-Programa" style="stroke:#181818;stroke-width:1.0;"/><polygon fill="#181818" points="275.889,37.7565,268.1658,31.6448,271.0459,36.5136,266.1772,39.3937,275.889,37.7565" style="stroke:#181818;stroke-width:1.0;"/><text fill="#000000" font-family="sans-serif" font-size="13" lengthAdjust="spacing" textLength="124" x="93" y="19.6328">Informa o seu peso</text></g><!--link Usuario to Programa--><g id="link_Usuario_Programa"><path d="M57.0632,60.515 C66.8611,64.1605 78.2658,67.7524 89,69.5659 C117.923,74.4525 191.829,72.6509 221,69.5659 C236.276,67.9504 252.726,64.8894 267.504,61.6392 " fill="none" id="Usuario-to-Programa-1" style="stroke:#181818;stroke-width:1.0;"/><polygon fill="#181818" points="272.448,60.5315,262.7908,58.5981,267.5692,61.6258,264.5416,66.4042,272.448,60.5315" style="stroke:#181818;stroke-width:1.0;"/><text fill="#000000" font-family="sans-serif" font-size="13" lengthAdjust="spacing" textLength="130" x="90" y="65.6328">Informa a sua altura</text></g><!--link Programa to Usuario--><g id="link_Programa_Usuario"><path d="M252.857,49.5659 C193.982,49.5659 107.685,49.5659 62.1881,49.5659 " fill="none" id="Programa-to-Usuario" style="stroke:#181818;stroke-width:1.0;"/><polygon fill="#181818" points="57.1135,49.5659,66.1135,53.5659,62.1135,49.5659,66.1135,45.5659,57.1135,49.5659" style="stroke:#181818;stroke-width:1.0;"/><text fill="#000000" font-family="sans-serif" font-size="13" lengthAdjust="spacing" textLength="159" x="75.5" y="42.6328">Informa o IMC ao usuário</text></g><!--SRC=[imejBaqioiotKj2rKz08ACfFBqhCJTIqKl3CIyiloarKo5SeJYrLA4WjpkUo8gGsKG6eG24nfwIqA94B9WzI3DU8CDNJrraXCL-XjBZqy4AW5000]--></g></svg>