<?xml version="1.0" encoding="windows-1252" standalone="no"?>
<svg xmlns="http://www.w3.org/2000/svg" xmlns:xlink="http://www.w3.org/1999/xlink" contentStyleType="text/css" height="86px" preserveAspectRatio="none" style="width:465px;height:86px;background:#FFFFFF;" version="1.1" viewBox="0 0 465 86" width="465px" zoomAndPan="magnify"><defs/><g><!--entity Usuario--><g id="elem_Usuario"><ellipse cx="31.5" cy="14" fill="#F1F1F1" rx="8" ry="8" style="stroke:#181818;stroke-width:0.5;"/><path d="M31.5,22 L31.5,49 M18.5,30 L44.5,30 M31.5,49 L18.5,64 M31.5,49 L44.5,64 " fill="none" style="stroke:#181818;stroke-width:0.5;"/><text fill="#000000" font-family="sans-serif" font-size="14" lengthAdjust="spacing" textLength="51" x="6" y="78.4951">Usuario</text></g><g id="elem_Programa"><ellipse cx="397.5597" cy="43.282" fill="#F1F1F1" rx="61.5597" ry="14.782" style="stroke:#181818;stroke-width:0.5;"/><text fill="#000000" font-family="sans-serif" font-size="14" lengthAdjust="spacing" textLength="69" x="360.0597" y="47.0295">Programa</text></g><!--link Usuario to Programa--><g id="link_Usuario_Programa"><path d="M57.2364,43.5 C113.361,43.5 248.294,43.5 330.379,43.5 " fill="none" id="Usuario-to-Programa" style="stroke:#181818;stroke-width:1.0;"/><polygon fill="#181818" points="335.708,43.5,326.708,39.5,330.708,43.5,326.708,47.5,335.708,43.5" style="stroke:#181818;stroke-width:1.0;"/><text fill="#000000" font-family="sans-serif" font-size="13" lengthAdjust="spacing" textLength="242" x="75.5" y="36.5669">Informa a temperatura em fahrenheit</text></g><!--link Programa to Usuario--><g id="link_Programa_Usuario"><path d="M356.379,54.677 C341.286,58.2507 323.984,61.7359 308,63.5 C258.744,68.9365 133.765,72.317 85,63.5 C77.3889,62.1239 69.4492,59.7296 62.0877,57.0655 " fill="none" id="Programa-to-Usuario" style="stroke:#181818;stroke-width:1.0;"/><polygon fill="#181818" points="57.0948,55.1871,64.1097,62.1002,61.7745,56.9478,66.9269,54.6126,57.0948,55.1871" style="stroke:#181818;stroke-width:1.0;"/><text fill="#000000" font-family="sans-serif" font-size="13" lengthAdjust="spacing" textLength="221" x="86" y="59.5669">Informa a temperatura em Celsius</text></g><!--SRC=[imejBaqioiotKj2rKz08ACfFBqhCJTIqKl3CIyiloarKI5GeISqjI2rAB2ajIbH8pLL8IymeIitBICqiuO8f1-c5cuDJetDgJd5cQJ40]--></g></svg>