<?xml version="1.0" encoding="windows-1252" standalone="no"?>
<svg xmlns="http://www.w3.org/2000/svg" xmlns:xlink="http://www.w3.org/1999/xlink" contentStyleType="text/css" height="93px" preserveAspectRatio="none" style="width:634px;height:93px;background:#FFFFFF;" version="1.1" viewBox="0 0 634 93" width="634px" zoomAndPan="magnify"><defs/><g><!--entity Usuario--><g id="elem_Usuario"><ellipse cx="31.5" cy="20.0659" fill="#F1F1F1" rx="8" ry="8" style="stroke:#181818;stroke-width:0.5;"/><path d="M31.5,28.0659 L31.5,55.0659 M18.5,36.0659 L44.5,36.0659 M31.5,55.0659 L18.5,70.0659 M31.5,55.0659 L44.5,70.0659 " fill="none" style="stroke:#181818;stroke-width:0.5;"/><text fill="#000000" font-family="sans-serif" font-size="14" lengthAdjust="spacing" textLength="51" x="6" y="84.561">Usuario</text></g><g id="elem_Programa"><ellipse cx="363.5597" cy="49.3479" fill="#F1F1F1" rx="61.5597" ry="14.782" style="stroke:#181818;stroke-width:0.5;"/><text fill="#000000" font-family="sans-serif" font-size="14" lengthAdjust="spacing" textLength="69" x="326.0597" y="53.0954">Programa</text></g><g id="elem_GMN6"><path d="M460.5,37.0659 L460.5,62.1987 L528.5,62.1987 L528.5,47.0659 L518.5,37.0659 L460.5,37.0659 " fill="#FEFFDD" style="stroke:#181818;stroke-width:0.5;"/><path d="M518.5,37.0659 L518.5,47.0659 L528.5,47.0659 L518.5,37.0659 " fill="#FEFFDD" style="stroke:#181818;stroke-width:1.0;"/><text fill="#000000" font-family="sans-serif" font-size="13" lengthAdjust="spacing" textLength="43" x="466.5" y="54.1328">Em KG</text></g><g id="elem_GMN10"><path d="M564,37.0659 L564,62.1987 L627,62.1987 L627,47.0659 L617,37.0659 L564,37.0659 " fill="#FEFFDD" style="stroke:#181818;stroke-width:0.5;"/><path d="M617,37.0659 L617,47.0659 L627,47.0659 L617,37.0659 " fill="#FEFFDD" style="stroke:#181818;stroke-width:1.0;"/><text fill="#000000" font-family="sans-serif" font-size="13" lengthAdjust="spacing" textLength="42" x="570" y="54.1328">Em R$</text></g><!--link Usuario to Programa--><g id="link_Usuario_Programa"><path d="M57.0002,49.5659 C107.712,49.5659 222.684,49.5659 296.501,49.5659 " fill="none" id="Usuario-to-Programa" style="stroke:#181818;stroke-width:1.0;"/><polygon fill="#181818" points="301.743,49.5659,292.743,45.5659,296.743,49.5659,292.743,53.5659,301.743,49.5659" style="stroke:#181818;stroke-width:1.0;"/><text fill="#000000" font-family="sans-serif" font-size="13" lengthAdjust="spacing" textLength="208" x="75.5" y="42.6328">Informa o total pescado (Em Kg)</text></g><!--link Programa to Usuario--><g id="link_Programa_Usuario"><path d="M324.889,37.7565 C312.155,34.4107 297.837,31.228 284.5,29.5659 C261.346,26.6805 97.2827,24.5268 74.5,29.5659 C70.3398,30.4861 66.1045,31.8515 61.9943,33.4445 " fill="none" id="Programa-to-Usuario" style="stroke:#181818;stroke-width:1.0;"/><polygon fill="#181818" points="57.2388,35.4062,67.0841,35.6718,61.861,33.4995,64.0333,28.2764,57.2388,35.4062" style="stroke:#181818;stroke-width:1.0;"/><text fill="#000000" font-family="sans-serif" font-size="13" lengthAdjust="spacing" textLength="93" x="133" y="19.6328">Peso excedido</text></g><!--link Programa to Usuario--><g id="link_Programa_Usuario"><path d="M315.033,58.9566 C268.075,66.8238 194.863,75.8401 131.5,69.5659 C108.048,67.2437 81.9498,61.9295 62.2966,57.3625 " fill="none" id="Programa-to-Usuario-1" style="stroke:#181818;stroke-width:1.0;"/><polygon fill="#181818" points="57.1887,56.1587,65.0309,62.1169,62.0553,57.3059,66.8663,54.3303,57.1887,56.1587" style="stroke:#181818;stroke-width:1.0;"/><text fill="#000000" font-family="sans-serif" font-size="13" lengthAdjust="spacing" textLength="94" x="132.5" y="65.6328">Valor da multa</text></g><!--link Programa to GMN6--><g id="link_Programa_GMN6"><path d="M425.162,49.5659 C436.899,49.5659 448.636,49.5659 460.373,49.5659 " fill="none" id="Programa-GMN6" style="stroke:#181818;stroke-width:1.0;stroke-dasharray:7.0,7.0;"/></g><!--link GMN6 to GMN10--><g id="link_GMN6_GMN10"><path d="M528.824,49.5659 C540.545,49.5659 552.265,49.5659 563.985,49.5659 " fill="none" id="GMN6-GMN10" style="stroke:#181818;stroke-width:1.0;stroke-dasharray:7.0,7.0;"/></g><!--SRC=[RSon2W8n48JXFaynXSLTuGkai1CHcqFGVhbTOo39oYO7FhwakECAs-7_nZ_gGXRLutZ2C9a6eqoZnxMyr391qRHHmaVgJAmOpXctCBerxMxxcAGgv3iBHrPNj0aiXdU3w-e29uNHv__yIKaDJCXBQhJpdTyFc_u1]--></g></svg>