<?xml version="1.0" encoding="windows-1252" standalone="no"?>
<svg xmlns="http://www.w3.org/2000/svg" xmlns:xlink="http://www.w3.org/1999/xlink" contentStyleType="text/css" height="296px" preserveAspectRatio="none" style="width:1259px;height:296px;background:#FFFFFF;" version="1.1" viewBox="0 0 1259 296" width="1259px" zoomAndPan="magnify"><defs/><g><line style="stroke:#181818;stroke-width:0.5;stroke-dasharray:5.0,5.0;" x1="37" x2="37" y1="36.2969" y2="261.3594"/><line style="stroke:#181818;stroke-width:0.5;stroke-dasharray:5.0,5.0;" x1="262" x2="262" y1="36.2969" y2="261.3594"/><line style="stroke:#181818;stroke-width:0.5;stroke-dasharray:5.0,5.0;" x1="526" x2="526" y1="36.2969" y2="261.3594"/><line style="stroke:#181818;stroke-width:0.5;stroke-dasharray:5.0,5.0;" x1="672.5" x2="672.5" y1="36.2969" y2="261.3594"/><line style="stroke:#181818;stroke-width:0.5;stroke-dasharray:5.0,5.0;" x1="888" x2="888" y1="36.2969" y2="261.3594"/><line style="stroke:#181818;stroke-width:0.5;stroke-dasharray:5.0,5.0;" x1="1228" x2="1228" y1="36.2969" y2="261.3594"/><rect fill="#E2E2F0" height="30.2969" rx="2.5" ry="2.5" style="stroke:#181818;stroke-width:0.5;" width="64" x="5" y="5"/><text fill="#000000" font-family="sans-serif" font-size="14" lengthAdjust="spacing" textLength="50" x="12" y="24.9951">usuario</text><rect fill="#E2E2F0" height="30.2969" rx="2.5" ry="2.5" style="stroke:#181818;stroke-width:0.5;" width="64" x="5" y="260.3594"/><text fill="#000000" font-family="sans-serif" font-size="14" lengthAdjust="spacing" textLength="50" x="12" y="280.3545">usuario</text><rect fill="#E2E2F0" height="30.2969" rx="2.5" ry="2.5" style="stroke:#181818;stroke-width:0.5;" width="52" x="236" y="5"/><text fill="#000000" font-family="sans-serif" font-size="14" lengthAdjust="spacing" textLength="38" x="243" y="24.9951">input</text><rect fill="#E2E2F0" height="30.2969" rx="2.5" ry="2.5" style="stroke:#181818;stroke-width:0.5;" width="52" x="236" y="260.3594"/><text fill="#000000" font-family="sans-serif" font-size="14" lengthAdjust="spacing" textLength="38" x="243" y="280.3545">input</text><rect fill="#E2E2F0" height="30.2969" rx="2.5" ry="2.5" style="stroke:#181818;stroke-width:0.5;" width="48" x="502" y="5"/><text fill="#000000" font-family="sans-serif" font-size="14" lengthAdjust="spacing" textLength="34" x="509" y="24.9951">float</text><rect fill="#E2E2F0" height="30.2969" rx="2.5" ry="2.5" style="stroke:#181818;stroke-width:0.5;" width="48" x="502" y="260.3594"/><text fill="#000000" font-family="sans-serif" font-size="14" lengthAdjust="spacing" textLength="34" x="509" y="280.3545">float</text><rect fill="#E2E2F0" height="30.2969" rx="2.5" ry="2.5" style="stroke:#181818;stroke-width:0.5;" width="71" x="637.5" y="5"/><text fill="#000000" font-family="sans-serif" font-size="14" lengthAdjust="spacing" textLength="57" x="644.5" y="24.9951">excesso</text><rect fill="#E2E2F0" height="30.2969" rx="2.5" ry="2.5" style="stroke:#181818;stroke-width:0.5;" width="71" x="637.5" y="260.3594"/><text fill="#000000" font-family="sans-serif" font-size="14" lengthAdjust="spacing" textLength="57" x="644.5" y="280.3545">excesso</text><rect fill="#E2E2F0" height="30.2969" rx="2.5" ry="2.5" style="stroke:#181818;stroke-width:0.5;" width="24" x="876" y="5"/><text fill="#000000" font-family="sans-serif" font-size="14" lengthAdjust="spacing" textLength="10" x="883" y="24.9951">if</text><rect fill="#E2E2F0" height="30.2969" rx="2.5" ry="2.5" style="stroke:#181818;stroke-width:0.5;" width="24" x="876" y="260.3594"/><text fill="#000000" font-family="sans-serif" font-size="14" lengthAdjust="spacing" textLength="10" x="883" y="280.3545">if</text><rect fill="#E2E2F0" height="30.2969" rx="2.5" ry="2.5" style="stroke:#181818;stroke-width:0.5;" width="50" x="1203" y="5"/><text fill="#000000" font-family="sans-serif" font-size="14" lengthAdjust="spacing" textLength="36" x="1210" y="24.9951">print</text><rect fill="#E2E2F0" height="30.2969" rx="2.5" ry="2.5" style="stroke:#181818;stroke-width:0.5;" width="50" x="1203" y="260.3594"/><text fill="#000000" font-family="sans-serif" font-size="14" lengthAdjust="spacing" textLength="36" x="1210" y="280.3545">print</text><polygon fill="#181818" points="250,63.4297,260,67.4297,250,71.4297,254,67.4297" style="stroke:#181818;stroke-width:1.0;"/><line style="stroke:#181818;stroke-width:1.0;" x1="37" x2="256" y1="67.4297" y2="67.4297"/><text fill="#000000" font-family="sans-serif" font-size="13" lengthAdjust="spacing" textLength="201" x="44" y="62.3638">Informará o peso total pescado</text><polygon fill="#181818" points="514,107.6953,524,111.6953,514,115.6953,518,111.6953" style="stroke:#181818;stroke-width:1.0;"/><line style="stroke:#181818;stroke-width:1.0;" x1="262" x2="520" y1="111.6953" y2="111.6953"/><text fill="#000000" font-family="sans-serif" font-size="13" lengthAdjust="spacing" textLength="208" x="269" y="91.4966">Converte o texto (str, ou, string)</text><text fill="#000000" font-family="sans-serif" font-size="13" lengthAdjust="spacing" textLength="236" x="273" y="106.6294">em número que possui casa decimal</text><polygon fill="#181818" points="661,136.8281,671,140.8281,661,144.8281,665,140.8281" style="stroke:#181818;stroke-width:1.0;"/><line style="stroke:#181818;stroke-width:1.0;" x1="526" x2="667" y1="140.8281" y2="140.8281"/><text fill="#000000" font-family="sans-serif" font-size="13" lengthAdjust="spacing" textLength="123" x="533" y="135.7622">Calculo do excesso</text><polygon fill="#181818" points="876,165.9609,886,169.9609,876,173.9609,880,169.9609" style="stroke:#181818;stroke-width:1.0;"/><line style="stroke:#181818;stroke-width:1.0;" x1="673" x2="882" y1="169.9609" y2="169.9609"/><text fill="#000000" font-family="sans-serif" font-size="13" lengthAdjust="spacing" textLength="191" x="680" y="164.895">Excesso é igual a 0 ou menos</text><polygon fill="#181818" points="1216,195.0938,1226,199.0938,1216,203.0938,1220,199.0938" style="stroke:#181818;stroke-width:1.0;"/><line style="stroke:#181818;stroke-width:1.0;" x1="888" x2="1222" y1="199.0938" y2="199.0938"/><text fill="#000000" font-family="sans-serif" font-size="13" lengthAdjust="spacing" textLength="316" x="895" y="194.0278">Captura a informação de que não existe excesso</text><polygon fill="#181818" points="48,239.3594,38,243.3594,48,247.3594,44,243.3594" style="stroke:#181818;stroke-width:1.0;"/><line style="stroke:#181818;stroke-width:1.0;" x1="42" x2="1227" y1="243.3594" y2="243.3594"/><text fill="#000000" font-family="sans-serif" font-size="13" lengthAdjust="spacing" textLength="121" x="54" y="223.1606">Informa ao usuário</text><text fill="#000000" font-family="sans-serif" font-size="13" lengthAdjust="spacing" textLength="132" x="58" y="238.2935">que não levou multa</text><!--SRC=[FL0xRaCn3DlVAJYsG0fqpj2bwD0xT17UqmiCs9PhMy6xJf2Xw1Mo-cAHdSzacg18IbgKiXEyVS35f7MFxxXA3fJR2OB4HL2bakzmfaMc8UlwrGkP_bFYaNDbKrVUgk2brBo3w0u6N3oy_aHmG6oNm5dmgumafQZ3J8MmyEm2-MdOTL_UPYv5p9dyh5wmo8ERxk-ek-xnTV-sVxY3Mad2koKZS9GokRNhadNeDIbLpMGATrkm_RMpUVCe53lcpHNRuv4r1hk3tcxqF0r8EjTEHjfkptdFnvwjlj8L]--></g></svg>