<?xml version="1.0" encoding="windows-1252" standalone="no"?>
<svg xmlns="http://www.w3.org/2000/svg" xmlns:xlink="http://www.w3.org/1999/xlink" contentStyleType="text/css" height="194px" preserveAspectRatio="none" style="width:451px;height:194px;background:#FFFFFF;" version="1.1" viewBox="0 0 451 194" width="451px" zoomAndPan="magnify"><defs/><g><!--entity User--><g id="elem_User"><ellipse cx="167.2281" cy="121.5" fill="#F1F1F1" rx="8" ry="8" style="stroke:#181818;stroke-width:0.5;"/><path d="M167.2281,129.5 L167.2281,156.5 M154.2281,137.5 L180.2281,137.5 M167.2281,156.5 L154.2281,171.5 M167.2281,156.5 L180.2281,171.5 " fill="none" style="stroke:#181818;stroke-width:0.5;"/><text fill="#000000" font-family="sans-serif" font-size="14" lengthAdjust="spacing" textLength="31" x="151.7281" y="185.9951">User</text></g><g id="elem_Programa"><ellipse cx="167.2878" cy="20.782" fill="#F1F1F1" rx="61.5597" ry="14.782" style="stroke:#181818;stroke-width:0.5;"/><text fill="#000000" font-family="sans-serif" font-size="14" lengthAdjust="spacing" textLength="69" x="129.7878" y="24.5295">Programa</text></g><g id="elem_GMN5"><path d="M264.2281,8.5 L264.2281,17 L228.9531,21 L264.2281,25 L264.2281,33.6328 A0,0 0 0 0 264.2281,33.6328 L444.2281,33.6328 A0,0 0 0 0 444.2281,33.6328 L444.2281,18.5 L434.2281,8.5 L264.2281,8.5 A0,0 0 0 0 264.2281,8.5 " fill="#FEFFDD" style="stroke:#181818;stroke-width:0.5;"/><path d="M434.2281,8.5 L434.2281,18.5 L444.2281,18.5 L434.2281,8.5 " fill="#FEFFDD" style="stroke:#181818;stroke-width:0.5;"/><text fill="#000000" font-family="sans-serif" font-size="13" lengthAdjust="spacing" textLength="159" x="270.2281" y="25.5669">Programa conver o valor</text></g><!--link User to Programa--><g id="link_User_Programa"><path d="M182.8101,143.8257 C212.4121,131.1358 272.0481,100.4083 251.2281,66 C242.3461,51.321 226.7741,41.301 211.4311,34.58 " fill="none" id="User-to-Programa" style="stroke:#181818;stroke-width:1.0;"/><polygon fill="#181818" points="206.6851,32.599,213.4502,39.7567,211.2994,34.5247,216.5314,32.3739,206.6851,32.599" style="stroke:#181818;stroke-width:1.0;"/><text fill="#000000" font-family="sans-serif" font-size="13" lengthAdjust="spacing" textLength="161" x="256.2281" y="79.0669">Informa valor em metros</text></g><!--link Programa to User--><g id="link_Programa_User"><path d="M109.9176,26.454 C83.2526,31.739 53.8236,42.863 37.2282,66 C6,109.5379 102.2842,136.2134 146.3911,145.8814 " fill="none" id="Programa-to-User" style="stroke:#181818;stroke-width:1.0;"/><polygon fill="#181818" points="151.4991,146.9761,143.538,141.1777,146.6103,145.9276,141.8604,148.9998,151.4991,146.9761" style="stroke:#181818;stroke-width:1.0;"/><text fill="#000000" font-family="sans-serif" font-size="13" lengthAdjust="spacing" textLength="204" x="38.2282" y="79.0669">Informa o valor em centimetros</text></g><!--SRC=[HSqn3e0W34RXdLFyemvSe8Excui785YHHDga4Czl327kBz-ZlR8Hl5ymRQR9GWapOPLJhGGyuLO35nHkfjM9DeRbT3KtQaILXmtQOyTouCiSZQBpVJHW_Ud8qdBtNm00]--></g></svg>