<?xml version="1.0" encoding="windows-1252" standalone="no"?>
<svg xmlns="http://www.w3.org/2000/svg" xmlns:xlink="http://www.w3.org/1999/xlink" contentStyleType="text/css" height="308px" preserveAspectRatio="none" style="width:1217px;height:308px;background:#FFFFFF;" version="1.1" viewBox="0 0 1217 308" width="1217px" zoomAndPan="magnify"><defs/><g><rect fill="#FFFFFF" height="167.6641" style="stroke:#181818;stroke-width:1.0;" width="10" x="841" y="96.5625"/><rect fill="#FFFFFF" height="109.3984" style="stroke:#181818;stroke-width:1.0;" width="10" x="846" y="154.8281"/><line style="stroke:#181818;stroke-width:0.5;stroke-dasharray:5.0,5.0;" x1="37" x2="37" y1="36.2969" y2="273.2266"/><line style="stroke:#181818;stroke-width:0.5;stroke-dasharray:5.0,5.0;" x1="386" x2="386" y1="36.2969" y2="273.2266"/><line style="stroke:#181818;stroke-width:0.5;stroke-dasharray:5.0,5.0;" x1="846" x2="846" y1="36.2969" y2="273.2266"/><line style="stroke:#181818;stroke-width:0.5;stroke-dasharray:5.0,5.0;" x1="1186" x2="1186" y1="36.2969" y2="273.2266"/><rect fill="#E2E2F0" height="30.2969" rx="2.5" ry="2.5" style="stroke:#181818;stroke-width:0.5;" width="64" x="5" y="5"/><text fill="#000000" font-family="sans-serif" font-size="14" lengthAdjust="spacing" textLength="50" x="12" y="24.9951">usuario</text><rect fill="#E2E2F0" height="30.2969" rx="2.5" ry="2.5" style="stroke:#181818;stroke-width:0.5;" width="64" x="5" y="272.2266"/><text fill="#000000" font-family="sans-serif" font-size="14" lengthAdjust="spacing" textLength="50" x="12" y="292.2217">usuario</text><rect fill="#E2E2F0" height="30.2969" rx="2.5" ry="2.5" style="stroke:#181818;stroke-width:0.5;" width="52" x="360" y="5"/><text fill="#000000" font-family="sans-serif" font-size="14" lengthAdjust="spacing" textLength="38" x="367" y="24.9951">input</text><rect fill="#E2E2F0" height="30.2969" rx="2.5" ry="2.5" style="stroke:#181818;stroke-width:0.5;" width="52" x="360" y="272.2266"/><text fill="#000000" font-family="sans-serif" font-size="14" lengthAdjust="spacing" textLength="38" x="367" y="292.2217">input</text><rect fill="#E2E2F0" height="30.2969" rx="2.5" ry="2.5" style="stroke:#181818;stroke-width:0.5;" width="48" x="822" y="5"/><text fill="#000000" font-family="sans-serif" font-size="14" lengthAdjust="spacing" textLength="34" x="829" y="24.9951">float</text><rect fill="#E2E2F0" height="30.2969" rx="2.5" ry="2.5" style="stroke:#181818;stroke-width:0.5;" width="48" x="822" y="272.2266"/><text fill="#000000" font-family="sans-serif" font-size="14" lengthAdjust="spacing" textLength="34" x="829" y="292.2217">float</text><rect fill="#E2E2F0" height="30.2969" rx="2.5" ry="2.5" style="stroke:#181818;stroke-width:0.5;" width="50" x="1161" y="5"/><text fill="#000000" font-family="sans-serif" font-size="14" lengthAdjust="spacing" textLength="36" x="1168" y="24.9951">print</text><rect fill="#E2E2F0" height="30.2969" rx="2.5" ry="2.5" style="stroke:#181818;stroke-width:0.5;" width="50" x="1161" y="272.2266"/><text fill="#000000" font-family="sans-serif" font-size="14" lengthAdjust="spacing" textLength="36" x="1168" y="292.2217">print</text><rect fill="#FFFFFF" height="167.6641" style="stroke:#181818;stroke-width:1.0;" width="10" x="841" y="96.5625"/><rect fill="#FFFFFF" height="109.3984" style="stroke:#181818;stroke-width:1.0;" width="10" x="846" y="154.8281"/><polygon fill="#181818" points="374,63.4297,384,67.4297,374,71.4297,378,67.4297" style="stroke:#181818;stroke-width:1.0;"/><line style="stroke:#181818;stroke-width:1.0;" x1="37" x2="380" y1="67.4297" y2="67.4297"/><text fill="#000000" font-family="sans-serif" font-size="13" lengthAdjust="spacing" textLength="266" x="44" y="62.3638">Usuário informará quanto ganha por hora</text><polygon fill="#181818" points="829,92.5625,839,96.5625,829,100.5625,833,96.5625" style="stroke:#181818;stroke-width:1.0;"/><line style="stroke:#181818;stroke-width:1.0;" x1="386" x2="835" y1="96.5625" y2="96.5625"/><text fill="#000000" font-family="sans-serif" font-size="13" lengthAdjust="spacing" textLength="436" x="393" y="91.4966">Converta o valor (str ,ou, texto) para um número com casa decimal</text><polygon fill="#181818" points="374,121.6953,384,125.6953,374,129.6953,378,125.6953" style="stroke:#181818;stroke-width:1.0;"/><line style="stroke:#181818;stroke-width:1.0;" x1="37" x2="380" y1="125.6953" y2="125.6953"/><text fill="#000000" font-family="sans-serif" font-size="13" lengthAdjust="spacing" textLength="325" x="44" y="120.6294">Usuário informará quantas horas trabalha por mês</text><polygon fill="#181818" points="834,150.8281,844,154.8281,834,158.8281,838,154.8281" style="stroke:#181818;stroke-width:1.0;"/><line style="stroke:#181818;stroke-width:1.0;" x1="386" x2="840" y1="154.8281" y2="154.8281"/><text fill="#000000" font-family="sans-serif" font-size="13" lengthAdjust="spacing" textLength="316" x="393" y="149.7622">Converta o valor (str ,ou, texto) para um número</text><line style="stroke:#181818;stroke-width:1.0;" x1="856" x2="898" y1="183.9609" y2="183.9609"/><line style="stroke:#181818;stroke-width:1.0;" x1="898" x2="898" y1="183.9609" y2="196.9609"/><line style="stroke:#181818;stroke-width:1.0;" x1="857" x2="898" y1="196.9609" y2="196.9609"/><polygon fill="#181818" points="867,192.9609,857,196.9609,867,200.9609,863,196.9609" style="stroke:#181818;stroke-width:1.0;"/><text fill="#000000" font-family="sans-serif" font-size="13" lengthAdjust="spacing" textLength="311" x="863" y="178.895">Calcule o salário mensal (Salário * horas p/ mes)</text><polygon fill="#181818" points="1174,222.0938,1184,226.0938,1174,230.0938,1178,226.0938" style="stroke:#181818;stroke-width:1.0;"/><line style="stroke:#181818;stroke-width:1.0;" x1="856" x2="1180" y1="226.0938" y2="226.0938"/><text fill="#000000" font-family="sans-serif" font-size="13" lengthAdjust="spacing" textLength="235" x="863" y="221.0278">Captura o resultado da multiplicação</text><polygon fill="#181818" points="48,251.2266,38,255.2266,48,259.2266,44,255.2266" style="stroke:#181818;stroke-width:1.0;"/><line style="stroke:#181818;stroke-width:1.0;" x1="42" x2="1185" y1="255.2266" y2="255.2266"/><text fill="#000000" font-family="sans-serif" font-size="13" lengthAdjust="spacing" textLength="344" x="54" y="250.1606">Demonstra o quanto o usuário ganhará naquele mês.</text><!--SRC=[fP4nJWGn34NxEONBNRH0lmKDt01nWB-PB1ifYRDEFE8wAmeaZa0x5oF9309H8T54bkt__M9hLeXZkhuZ5vEMFJrbdIyjvUAH9K3c2vqLiJ0z8vv0YOLEB1Ywe2cFdb6LznmdAmN4DC7NhaqkGZlM7HNxKdXB2GBIG77-25QO30SooA3H6XVW1vZY9XIxM0xwTpha3fMf20xmAsUOt_F_ENzZzVUd8RnHRwjVXb_mWeqrfitZL-9gnKktjPQttnv9NEmUgQWq9h5PVS78D8923Ltopc1-crzvwDrDjgvcJmysSAmVQDBrJjogozX-ihQaYBFQojWsSlC9]--></g></svg>