<?xml version="1.0" encoding="windows-1252" standalone="no"?>
<svg xmlns="http://www.w3.org/2000/svg" xmlns:xlink="http://www.w3.org/1999/xlink" contentStyleType="text/css" height="308px" preserveAspectRatio="none" style="width:1111px;height:308px;background:#FFFFFF;" version="1.1" viewBox="0 0 1111 308" width="1111px" zoomAndPan="magnify"><defs/><g><rect fill="#FFFFFF" height="167.6641" style="stroke:#181818;stroke-width:1.0;" width="10" x="695" y="96.5625"/><rect fill="#FFFFFF" height="109.3984" style="stroke:#181818;stroke-width:1.0;" width="10" x="700" y="154.8281"/><line style="stroke:#181818;stroke-width:0.5;stroke-dasharray:5.0,5.0;" x1="37" x2="37" y1="36.2969" y2="273.2266"/><line style="stroke:#181818;stroke-width:0.5;stroke-dasharray:5.0,5.0;" x1="256" x2="256" y1="36.2969" y2="273.2266"/><line style="stroke:#181818;stroke-width:0.5;stroke-dasharray:5.0,5.0;" x1="700" x2="700" y1="36.2969" y2="273.2266"/><line style="stroke:#181818;stroke-width:0.5;stroke-dasharray:5.0,5.0;" x1="1080" x2="1080" y1="36.2969" y2="273.2266"/><rect fill="#E2E2F0" height="30.2969" rx="2.5" ry="2.5" style="stroke:#181818;stroke-width:0.5;" width="64" x="5" y="5"/><text fill="#000000" font-family="sans-serif" font-size="14" lengthAdjust="spacing" textLength="50" x="12" y="24.9951">usuario</text><rect fill="#E2E2F0" height="30.2969" rx="2.5" ry="2.5" style="stroke:#181818;stroke-width:0.5;" width="64" x="5" y="272.2266"/><text fill="#000000" font-family="sans-serif" font-size="14" lengthAdjust="spacing" textLength="50" x="12" y="292.2217">usuario</text><rect fill="#E2E2F0" height="30.2969" rx="2.5" ry="2.5" style="stroke:#181818;stroke-width:0.5;" width="52" x="230" y="5"/><text fill="#000000" font-family="sans-serif" font-size="14" lengthAdjust="spacing" textLength="38" x="237" y="24.9951">input</text><rect fill="#E2E2F0" height="30.2969" rx="2.5" ry="2.5" style="stroke:#181818;stroke-width:0.5;" width="52" x="230" y="272.2266"/><text fill="#000000" font-family="sans-serif" font-size="14" lengthAdjust="spacing" textLength="38" x="237" y="292.2217">input</text><rect fill="#E2E2F0" height="30.2969" rx="2.5" ry="2.5" style="stroke:#181818;stroke-width:0.5;" width="48" x="676" y="5"/><text fill="#000000" font-family="sans-serif" font-size="14" lengthAdjust="spacing" textLength="34" x="683" y="24.9951">float</text><rect fill="#E2E2F0" height="30.2969" rx="2.5" ry="2.5" style="stroke:#181818;stroke-width:0.5;" width="48" x="676" y="272.2266"/><text fill="#000000" font-family="sans-serif" font-size="14" lengthAdjust="spacing" textLength="34" x="683" y="292.2217">float</text><rect fill="#E2E2F0" height="30.2969" rx="2.5" ry="2.5" style="stroke:#181818;stroke-width:0.5;" width="50" x="1055" y="5"/><text fill="#000000" font-family="sans-serif" font-size="14" lengthAdjust="spacing" textLength="36" x="1062" y="24.9951">print</text><rect fill="#E2E2F0" height="30.2969" rx="2.5" ry="2.5" style="stroke:#181818;stroke-width:0.5;" width="50" x="1055" y="272.2266"/><text fill="#000000" font-family="sans-serif" font-size="14" lengthAdjust="spacing" textLength="36" x="1062" y="292.2217">print</text><rect fill="#FFFFFF" height="167.6641" style="stroke:#181818;stroke-width:1.0;" width="10" x="695" y="96.5625"/><rect fill="#FFFFFF" height="109.3984" style="stroke:#181818;stroke-width:1.0;" width="10" x="700" y="154.8281"/><polygon fill="#181818" points="244,63.4297,254,67.4297,244,71.4297,248,67.4297" style="stroke:#181818;stroke-width:1.0;"/><line style="stroke:#181818;stroke-width:1.0;" x1="37" x2="250" y1="67.4297" y2="67.4297"/><text fill="#000000" font-family="sans-serif" font-size="13" lengthAdjust="spacing" textLength="189" x="44" y="62.3638">Usuário informará o seu peso</text><polygon fill="#181818" points="683,92.5625,693,96.5625,683,100.5625,687,96.5625" style="stroke:#181818;stroke-width:1.0;"/><line style="stroke:#181818;stroke-width:1.0;" x1="256" x2="689" y1="96.5625" y2="96.5625"/><text fill="#000000" font-family="sans-serif" font-size="13" lengthAdjust="spacing" textLength="420" x="263" y="91.4966">Converta o valor(str outexto) para um número com casa decimal</text><polygon fill="#181818" points="244,121.6953,254,125.6953,244,129.6953,248,125.6953" style="stroke:#181818;stroke-width:1.0;"/><line style="stroke:#181818;stroke-width:1.0;" x1="37" x2="250" y1="125.6953" y2="125.6953"/><text fill="#000000" font-family="sans-serif" font-size="13" lengthAdjust="spacing" textLength="195" x="44" y="120.6294">Usuário informará a sua altura</text><polygon fill="#181818" points="688,150.8281,698,154.8281,688,158.8281,692,154.8281" style="stroke:#181818;stroke-width:1.0;"/><line style="stroke:#181818;stroke-width:1.0;" x1="256" x2="694" y1="154.8281" y2="154.8281"/><text fill="#000000" font-family="sans-serif" font-size="13" lengthAdjust="spacing" textLength="402" x="263" y="149.7622">Converta o valor em texto para um número com casa decimal</text><line style="stroke:#181818;stroke-width:1.0;" x1="710" x2="752" y1="183.9609" y2="183.9609"/><line style="stroke:#181818;stroke-width:1.0;" x1="752" x2="752" y1="183.9609" y2="196.9609"/><line style="stroke:#181818;stroke-width:1.0;" x1="711" x2="752" y1="196.9609" y2="196.9609"/><polygon fill="#181818" points="721,192.9609,711,196.9609,721,200.9609,717,196.9609" style="stroke:#181818;stroke-width:1.0;"/><text fill="#000000" font-family="sans-serif" font-size="13" lengthAdjust="spacing" textLength="351" x="717" y="178.895">Calcule o IMC do usuario ((altura * altura) / peso = IMC)</text><polygon fill="#181818" points="1068,222.0938,1078,226.0938,1068,230.0938,1072,226.0938" style="stroke:#181818;stroke-width:1.0;"/><line style="stroke:#181818;stroke-width:1.0;" x1="710" x2="1074" y1="226.0938" y2="226.0938"/><text fill="#000000" font-family="sans-serif" font-size="13" lengthAdjust="spacing" textLength="173" x="717" y="221.0278">Captura o resultado do IMC</text><polygon fill="#181818" points="48,251.2266,38,255.2266,48,259.2266,44,255.2266" style="stroke:#181818;stroke-width:1.0;"/><line style="stroke:#181818;stroke-width:1.0;" x1="42" x2="1079" y1="255.2266" y2="255.2266"/><text fill="#000000" font-family="sans-serif" font-size="13" lengthAdjust="spacing" textLength="249" x="54" y="250.1606">Demonstra o calculo do IMC ao usuário</text><!--SRC=[bP0nQiD044LxdUANKY2aDoIDqwH8cGCCgp4ixEw8sHtXw_WQQNMnhCOsIPUacM9uF1xVgf56mUCBObci7V1HRRlihrXEefbqkq1GsR1mbS6f7JybeOuVfQoiZJgpKX8TQrE8DJutcR2G4YoZR9-PLH0a8r0bp1nYfZHGQ76bnbVTO7_A8NGCb9ef_He4pl2QVyVu_Mcc52nn5x-z7p4BxhNZU6t1morgmfElXUSTdRvDYyRYfiLvWNArrAZBPjSEJkpeJNx0AsSfVTKT3vvmXq7UuFjy0G00]--></g></svg>