<?xml version="1.0" encoding="windows-1252" standalone="no"?>
<svg xmlns="http://www.w3.org/2000/svg" xmlns:xlink="http://www.w3.org/1999/xlink" contentStyleType="text/css" height="308px" preserveAspectRatio="none" style="width:1147px;height:308px;background:#FFFFFF;" version="1.1" viewBox="0 0 1147 308" width="1147px" zoomAndPan="magnify"><defs/><g><rect fill="#FFFFFF" height="167.6641" style="stroke:#181818;stroke-width:1.0;" width="10" x="716" y="96.5625"/><rect fill="#FFFFFF" height="109.3984" style="stroke:#181818;stroke-width:1.0;" width="10" x="721" y="154.8281"/><line style="stroke:#181818;stroke-width:0.5;stroke-dasharray:5.0,5.0;" x1="37" x2="37" y1="36.2969" y2="273.2266"/><line style="stroke:#181818;stroke-width:0.5;stroke-dasharray:5.0,5.0;" x1="256" x2="256" y1="36.2969" y2="273.2266"/><line style="stroke:#181818;stroke-width:0.5;stroke-dasharray:5.0,5.0;" x1="721" x2="721" y1="36.2969" y2="273.2266"/><line style="stroke:#181818;stroke-width:0.5;stroke-dasharray:5.0,5.0;" x1="1116" x2="1116" y1="36.2969" y2="273.2266"/><rect fill="#E2E2F0" height="30.2969" rx="2.5" ry="2.5" style="stroke:#181818;stroke-width:0.5;" width="64" x="5" y="5"/><text fill="#000000" font-family="sans-serif" font-size="14" lengthAdjust="spacing" textLength="50" x="12" y="24.9951">usuario</text><rect fill="#E2E2F0" height="30.2969" rx="2.5" ry="2.5" style="stroke:#181818;stroke-width:0.5;" width="64" x="5" y="272.2266"/><text fill="#000000" font-family="sans-serif" font-size="14" lengthAdjust="spacing" textLength="50" x="12" y="292.2217">usuario</text><rect fill="#E2E2F0" height="30.2969" rx="2.5" ry="2.5" style="stroke:#181818;stroke-width:0.5;" width="52" x="230" y="5"/><text fill="#000000" font-family="sans-serif" font-size="14" lengthAdjust="spacing" textLength="38" x="237" y="24.9951">input</text><rect fill="#E2E2F0" height="30.2969" rx="2.5" ry="2.5" style="stroke:#181818;stroke-width:0.5;" width="52" x="230" y="272.2266"/><text fill="#000000" font-family="sans-serif" font-size="14" lengthAdjust="spacing" textLength="38" x="237" y="292.2217">input</text><rect fill="#E2E2F0" height="30.2969" rx="2.5" ry="2.5" style="stroke:#181818;stroke-width:0.5;" width="48" x="697" y="5"/><text fill="#000000" font-family="sans-serif" font-size="14" lengthAdjust="spacing" textLength="34" x="704" y="24.9951">float</text><rect fill="#E2E2F0" height="30.2969" rx="2.5" ry="2.5" style="stroke:#181818;stroke-width:0.5;" width="48" x="697" y="272.2266"/><text fill="#000000" font-family="sans-serif" font-size="14" lengthAdjust="spacing" textLength="34" x="704" y="292.2217">float</text><rect fill="#E2E2F0" height="30.2969" rx="2.5" ry="2.5" style="stroke:#181818;stroke-width:0.5;" width="50" x="1091" y="5"/><text fill="#000000" font-family="sans-serif" font-size="14" lengthAdjust="spacing" textLength="36" x="1098" y="24.9951">print</text><rect fill="#E2E2F0" height="30.2969" rx="2.5" ry="2.5" style="stroke:#181818;stroke-width:0.5;" width="50" x="1091" y="272.2266"/><text fill="#000000" font-family="sans-serif" font-size="14" lengthAdjust="spacing" textLength="36" x="1098" y="292.2217">print</text><rect fill="#FFFFFF" height="167.6641" style="stroke:#181818;stroke-width:1.0;" width="10" x="716" y="96.5625"/><rect fill="#FFFFFF" height="109.3984" style="stroke:#181818;stroke-width:1.0;" width="10" x="721" y="154.8281"/><polygon fill="#181818" points="244,63.4297,254,67.4297,244,71.4297,248,67.4297" style="stroke:#181818;stroke-width:1.0;"/><line style="stroke:#181818;stroke-width:1.0;" x1="37" x2="250" y1="67.4297" y2="67.4297"/><text fill="#000000" font-family="sans-serif" font-size="13" lengthAdjust="spacing" textLength="189" x="44" y="62.3638">Usuário informará o seu peso</text><polygon fill="#181818" points="704,92.5625,714,96.5625,704,100.5625,708,96.5625" style="stroke:#181818;stroke-width:1.0;"/><line style="stroke:#181818;stroke-width:1.0;" x1="256" x2="710" y1="96.5625" y2="96.5625"/><text fill="#000000" font-family="sans-serif" font-size="13" lengthAdjust="spacing" textLength="436" x="263" y="91.4966">Converta o valor (str ,ou, texto) para um número com casa decimal</text><polygon fill="#181818" points="244,121.6953,254,125.6953,244,129.6953,248,125.6953" style="stroke:#181818;stroke-width:1.0;"/><line style="stroke:#181818;stroke-width:1.0;" x1="37" x2="250" y1="125.6953" y2="125.6953"/><text fill="#000000" font-family="sans-serif" font-size="13" lengthAdjust="spacing" textLength="195" x="44" y="120.6294">Usuário informará a sua altura</text><polygon fill="#181818" points="709,150.8281,719,154.8281,709,158.8281,713,154.8281" style="stroke:#181818;stroke-width:1.0;"/><line style="stroke:#181818;stroke-width:1.0;" x1="256" x2="715" y1="154.8281" y2="154.8281"/><text fill="#000000" font-family="sans-serif" font-size="13" lengthAdjust="spacing" textLength="436" x="263" y="149.7622">Converta o valor (str ,ou, texto) para um número com casa decimal</text><line style="stroke:#181818;stroke-width:1.0;" x1="731" x2="773" y1="183.9609" y2="183.9609"/><line style="stroke:#181818;stroke-width:1.0;" x1="773" x2="773" y1="183.9609" y2="196.9609"/><line style="stroke:#181818;stroke-width:1.0;" x1="732" x2="773" y1="196.9609" y2="196.9609"/><polygon fill="#181818" points="742,192.9609,732,196.9609,742,200.9609,738,196.9609" style="stroke:#181818;stroke-width:1.0;"/><text fill="#000000" font-family="sans-serif" font-size="13" lengthAdjust="spacing" textLength="366" x="738" y="178.895">Calcule o IMC do usuario ((input2 * input2) / input1 = IMC)</text><polygon fill="#181818" points="1104,222.0938,1114,226.0938,1104,230.0938,1108,226.0938" style="stroke:#181818;stroke-width:1.0;"/><line style="stroke:#181818;stroke-width:1.0;" x1="256" x2="1110" y1="226.0938" y2="226.0938"/><text fill="#000000" font-family="sans-serif" font-size="13" lengthAdjust="spacing" textLength="173" x="263" y="221.0278">Captura o resultado do IMC</text><polygon fill="#181818" points="48,251.2266,38,255.2266,48,259.2266,44,255.2266" style="stroke:#181818;stroke-width:1.0;"/><line style="stroke:#181818;stroke-width:1.0;" x1="42" x2="1115" y1="255.2266" y2="255.2266"/><text fill="#000000" font-family="sans-serif" font-size="13" lengthAdjust="spacing" textLength="249" x="54" y="250.1606">Demonstra o calculo do IMC ao usuário</text><!--SRC=[lP0nJiGm44NxdEAN2Lg4s78bQ9Q6Wf83Z9nPoPBjYSQUYEliDMXpCMo75PHKD9PbFRrvOyj6wWNtp_1fiNB2UxRjsfvykeX6qkqAGMR3mbc6JZNy4eGgVfQqiXQgp4f156CkYeFO0OK_YanOI0aMaRRFo2fm4k4e4sPsFb8Oo1M_Kk5TETYVaWWL0uLYIlyGrS_V4oWu2rm7lBwTCGjkrUFOOuwus-kF4nxssoEU6Zpzr2xgKtSjROlgKiuM2bNTtCL39nhwhJ_XXQEakat3NO-umQ1UqN_g2m00]--></g></svg>